<?xml version="1.0" encoding="UTF-8"?>
<svg viewBox="-2 -2 40 40" version="1.1" xmlns="http://www.w3.org/2000/svg" xmlns:xlink="http://www.w3.org/1999/xlink">
<defs>
    <radialGradient id="dpad_gradient" cx="0.5" cy="0.5" r="0.5" fx="0.5" fy="0.5">
        <stop offset="0" stop-color="#fff"/>
        <stop offset="1" stop-color="#ccc"/>
    </radialGradient>
    <path id="dpad_shape" d="M1,12 h10 q1,0 1,-1 v-10 q0,-1 1,-1 h10 q1,0 1,1 v10 q0,1 1,1 h10 q1,0 1,1 v10 q0,1 -1,1 h-10 q-1,0 -1,1 v10 q0,1 -1,1 h-10 q-1,0 -1,-1 v-10 q0,-1 -1,-1 h-10 q-1,0 -1,-1 v-10 q0,-1 1,-1 z"/>
    <clipPath id="dpad_clip">
        <use xlink:href="#dpad_shape"/>
    </clipPath>
</defs>
<g>
    <use xlink:href="#dpad_shape" x="1" y="1" opacity="0.887" stroke-width="1" stroke="#000" fill="#000" />
    <use xlink:href="#dpad_shape" fill="url(#dpad_gradient)" />
    <g clip-path="url(#dpad_clip)">
        <use xlink:href="#dpad_shape" x="-0.5" y="-0.5" stroke-width="2" stroke="#000" stroke-opacity="0.5" fill="none" />
        <use xlink:href="#dpad_shape" x="0.5" y="0.5" stroke-width="2" stroke="#fff" stroke-opacity="0.5" fill="none" />
    </g>
    <use xlink:href="#dpad_shape" stroke-width="1" stroke="#000" fill="none" />
    <path d="M4,18 h7 M32,18 h-7 M18,4 v7 M18,32 v-7" stroke-width="1" stroke="#909090" fill="none"/>
</g>
</svg>
