<svg xmlns="http://www.w3.org/2000/svg" fill="none" viewBox="0 0 330 433" height="433" width="330">
<path fill="#413627" d="M161.2 1.40005C159.466 2.46672 131.333 54.0667 131.333 56.0667C131.333 56.7334 128.666 57.8 125.333 58.2C97.3332 62.4667 61.8665 86.0667 43.5998 112.733C33.3332 127.533 23.3332 154.467 23.3332 167.133C23.3332 170.867 22.6665 172.333 20.7998 173C15.0665 174.733 14.2665 177.667 12.7998 198.333C11.4665 219.8 11.9998 223.133 17.9998 225C20.1332 225.667 20.6665 227 20.6665 232.333C20.6665 252.067 15.0665 288.333 6.6665 322.6C3.33317 335.933 0.666504 348.2 0.666504 349.933C0.666504 354.333 3.0665 356.333 42.6665 385.667C61.7332 399.8 83.5998 416.067 91.3332 421.8C105.733 432.6 109.066 434.067 111.066 429.933C111.733 428.733 113.333 412.733 114.666 394.6C116.666 367.533 117.466 361.267 119.2 360.467C120.4 359.8 126.933 357.4 133.867 355C150 349.533 166 348.333 181.866 351.533C192.4 353.667 209.6 359.4 211.6 361.4C212.133 361.933 213.466 376.733 214.666 394.333C215.866 411.933 217.333 427.667 218 429.267C218.666 431 220.4 432.333 221.733 432.333C224.533 432.333 316.666 365.4 327.066 355.933C330.933 352.333 330.8 350.2 325.333 330.733C317.466 302.467 310.933 265.667 309.2 239.267C308.4 227.8 308.533 225.667 310.266 225.667C311.333 225.667 313.6 224.2 315.2 222.467C318.133 219.4 318.133 218.6 317.333 202.067C316.133 177.267 316 176.6 310.533 174.067C306.533 172.067 306 171.267 306 167C306 159 301.066 142.333 295.333 130.6C278.533 96.2001 242 66.6001 207.066 59.0001L199.466 57.2667L185.2 31.1334C177.333 16.7334 170 3.93337 168.933 2.60003C166.8 0.200032 163.733 -0.333283 161.2 1.40005ZM176.266 38.6L187.066 58.3334L184.533 78.3334C176.533 141.667 172.666 175.667 173.333 177.8C173.733 179 178.133 183.8 182.933 188.333C193.066 197.933 191.866 197.8 216.666 191.267C240.266 185.133 270.266 181.267 288.4 181.933C296.666 182.333 303.733 183 304.266 183.4C304.666 183.933 305.333 191.133 305.733 199.4L306.4 214.6L277.866 215.4C248 216.2 240.133 217.267 220 223.8C204.933 228.733 182.4 239.8 180.133 243.267C178.266 246.467 177.866 243.8 185.333 293.4L187.6 308.6L184.4 311.933C182.8 313.8 177.866 318.067 173.6 321.267C164.4 328.333 164.266 328.333 151.333 316.6C141.733 307.933 141.866 309.8 147.2 273.667C149.733 256.467 150.667 246.6 149.867 244.6C149.067 242.333 144.4 239.4 133.733 234.333C103.2 219.8 88.1332 216.333 50.7998 215.4L23.0665 214.733L23.9998 199.8C24.5332 191.667 25.4665 184.333 26.2665 183.667C26.9332 182.867 35.5998 182.333 47.0665 182.333C69.4665 182.467 89.3332 185.133 112.4 191.267C137.333 197.8 135.866 197.933 146.4 188.333C151.333 183.8 155.6 178.733 156 177.267C156.4 175.667 153.733 149.4 150 119C146.4 88.6 143.333 62.0667 143.333 59.9334C143.333 56.4667 162.8 19.0001 164.533 19.0001C164.933 19.0001 170.266 27.8 176.266 38.6ZM132.666 69.9334C132.666 70.8667 135.066 91.8 138 116.333C140.933 140.867 143.733 164.067 144.133 167.8C144.933 174.6 144.933 174.6 139.066 179.4L133.066 184.333L117.866 180.333C97.4665 175 68.7998 170.867 49.8665 170.6L34.2665 170.333L34.9332 165.667C41.1998 122.2 77.3332 82.4667 121.2 71.0001C132.8 67.9334 132.666 67.9334 132.666 69.9334ZM214.666 73.4C232.133 79.5334 244.666 87.2667 259.333 101.133C277.466 118.333 290.8 142.467 294.533 165L295.466 170.333L280.4 170.467C258.666 170.733 227.333 175.533 205.6 181.8L196.533 184.467L190.533 179.667C187.333 177 184.666 174.467 184.666 173.933C184.533 173.4 187.467 149.533 190.933 120.733L197.2 68.4667L201.333 69.2667C203.466 69.6667 209.6 71.5334 214.666 73.4ZM55.9998 231.933C59.1998 253.533 73.5998 266.467 104 275.133C109.866 276.733 114.8 278.2 115.066 278.467C115.333 278.6 114.266 287.267 112.8 297.8C108.933 325.267 105.066 362.6 103.2 389.933C102.266 403 101.2 413.667 100.8 413.667C100.4 413.667 93.9998 409.267 86.6665 403.933L73.3332 394.2L72.3998 381.533C71.0665 364.733 67.9998 346.067 63.1998 324.867C58.6665 305 48.9332 275 48.7998 280.6C48.6665 282.6 51.0665 298.2 53.9998 315.267C59.4665 348.2 63.3332 375.4 63.3332 382.467V386.867L38.3998 368.2C24.5332 357.933 13.1998 348.867 12.9332 347.933C12.7998 347 14.9332 336.467 17.8665 324.6C25.5998 293.4 32.5332 247.933 32.6665 227.933C32.6665 225.933 34.1332 225.667 43.8665 225.667H55.0665L55.9998 231.933ZM296.666 226.6C296.666 227.267 297.333 234.867 298 243.667C300.533 272.2 306.4 304.867 314.266 333.4C318.266 348.067 318.266 348.6 315.866 350.333C314.4 351.267 303.2 359.667 290.666 368.867C274.933 380.467 267.866 385 267.6 383.667C266.8 380.333 270.933 348.733 276.666 313.933C284.266 267.933 283.6 266.6 272.8 304.2C265.6 328.867 260 358.467 258.533 379.8L257.6 393.133L243.733 403.4C236.133 409 229.466 413.667 228.8 413.667C228.266 413.667 227.066 401.533 226.133 386.6C224.533 359.8 221.066 327.667 217.2 302.333C216.133 295 214.933 286.6 214.533 283.667L213.733 278.333L225.6 275.133C232 273.267 241.866 269.533 247.6 266.733C262.533 259.267 269.467 250.333 272.8 233.933L274.533 225.667H285.6C291.733 225.667 296.666 226.067 296.666 226.6Z"></path>
<path fill="#413627" d="M161.2 1.40005C159.466 2.46672 131.333 54.0667 131.333 56.0667C131.333 56.7334 128.666 57.8 125.333 58.2C97.3332 62.4667 61.8665 86.0667 43.5998 112.733C33.3332 127.533 23.3332 154.467 23.3332 167.133C23.3332 170.867 22.6665 172.333 20.7998 173C15.0665 174.733 14.2665 177.667 12.7998 198.333C11.4665 219.8 11.9998 223.133 17.9998 225C20.1332 225.667 20.6665 227 20.6665 232.333C20.6665 252.067 15.0665 288.333 6.6665 322.6C3.33317 335.933 0.666504 348.2 0.666504 349.933C0.666504 354.333 3.0665 356.333 42.6665 385.667C61.7332 399.8 83.5998 416.067 91.3332 421.8C105.733 432.6 109.066 434.067 111.066 429.933C111.733 428.733 113.333 412.733 114.666 394.6C116.666 367.533 117.466 361.267 119.2 360.467C120.4 359.8 126.933 357.4 133.867 355C150 349.533 166 348.333 181.866 351.533C192.4 353.667 209.6 359.4 211.6 361.4C212.133 361.933 213.466 376.733 214.666 394.333C215.866 411.933 217.333 427.667 218 429.267C218.666 431 220.4 432.333 221.733 432.333C224.533 432.333 316.666 365.4 327.066 355.933C330.933 352.333 330.8 350.2 325.333 330.733C317.466 302.467 310.933 265.667 309.2 239.267C308.4 227.8 308.533 225.667 310.266 225.667C311.333 225.667 313.6 224.2 315.2 222.467C318.133 219.4 318.133 218.6 317.333 202.067C316.133 177.267 316 176.6 310.533 174.067C306.533 172.067 306 171.267 306 167C306 159 301.066 142.333 295.333 130.6C278.533 96.2001 242 66.6001 207.066 59.0001L199.466 57.2667L185.2 31.1334C177.333 16.7334 170 3.93337 168.933 2.60003C166.8 0.200032 163.733 -0.333283 161.2 1.40005ZM176.266 38.6L187.066 58.3334L184.533 78.3334C176.533 141.667 172.666 175.667 173.333 177.8C173.733 179 178.133 183.8 182.933 188.333C193.066 197.933 191.866 197.8 216.666 191.267C240.266 185.133 270.266 181.267 288.4 181.933C296.666 182.333 303.733 183 304.266 183.4C304.666 183.933 305.333 191.133 305.733 199.4L306.4 214.6L277.866 215.4C248 216.2 240.133 217.267 220 223.8C204.933 228.733 182.4 239.8 180.133 243.267C178.266 246.467 177.866 243.8 185.333 293.4L187.6 308.6L184.4 311.933C182.8 313.8 177.866 318.067 173.6 321.267C164.4 328.333 164.266 328.333 151.333 316.6C141.733 307.933 141.866 309.8 147.2 273.667C149.733 256.467 150.667 246.6 149.867 244.6C149.067 242.333 144.4 239.4 133.733 234.333C103.2 219.8 88.1332 216.333 50.7998 215.4L23.0665 214.733L23.9998 199.8C24.5332 191.667 25.4665 184.333 26.2665 183.667C26.9332 182.867 35.5998 182.333 47.0665 182.333C69.4665 182.467 89.3332 185.133 112.4 191.267C137.333 197.8 135.866 197.933 146.4 188.333C151.333 183.8 155.6 178.733 156 177.267C156.4 175.667 153.733 149.4 150 119C146.4 88.6 143.333 62.0667 143.333 59.9334C143.333 56.4667 162.8 19.0001 164.533 19.0001C164.933 19.0001 170.266 27.8 176.266 38.6ZM132.666 69.9334C132.666 70.8667 135.066 91.8 138 116.333C140.933 140.867 143.733 164.067 144.133 167.8C144.933 174.6 144.933 174.6 139.066 179.4L133.066 184.333L117.866 180.333C97.4665 175 68.7998 170.867 49.8665 170.6L34.2665 170.333L34.9332 165.667C41.1998 122.2 77.3332 82.4667 121.2 71.0001C132.8 67.9334 132.666 67.9334 132.666 69.9334ZM214.666 73.4C232.133 79.5334 244.666 87.2667 259.333 101.133C277.466 118.333 290.8 142.467 294.533 165L295.466 170.333L280.4 170.467C258.666 170.733 227.333 175.533 205.6 181.8L196.533 184.467L190.533 179.667C187.333 177 184.666 174.467 184.666 173.933C184.533 173.4 187.467 149.533 190.933 120.733L197.2 68.4667L201.333 69.2667C203.466 69.6667 209.6 71.5334 214.666 73.4ZM55.9998 231.933C59.1998 253.533 73.5998 266.467 104 275.133C109.866 276.733 114.8 278.2 115.066 278.467C115.333 278.6 114.266 287.267 112.8 297.8C108.933 325.267 105.066 362.6 103.2 389.933C102.266 403 101.2 413.667 100.8 413.667C100.4 413.667 93.9998 409.267 86.6665 403.933L73.3332 394.2L72.3998 381.533C71.0665 364.733 67.9998 346.067 63.1998 324.867C58.6665 305 48.9332 275 48.7998 280.6C48.6665 282.6 51.0665 298.2 53.9998 315.267C59.4665 348.2 63.3332 375.4 63.3332 382.467V386.867L38.3998 368.2C24.5332 357.933 13.1998 348.867 12.9332 347.933C12.7998 347 14.9332 336.467 17.8665 324.6C25.5998 293.4 32.5332 247.933 32.6665 227.933C32.6665 225.933 34.1332 225.667 43.8665 225.667H55.0665L55.9998 231.933ZM296.666 226.6C296.666 227.267 297.333 234.867 298 243.667C300.533 272.2 306.4 304.867 314.266 333.4C318.266 348.067 318.266 348.6 315.866 350.333C314.4 351.267 303.2 359.667 290.666 368.867C274.933 380.467 267.866 385 267.6 383.667C266.8 380.333 270.933 348.733 276.666 313.933C284.266 267.933 283.6 266.6 272.8 304.2C265.6 328.867 260 358.467 258.533 379.8L257.6 393.133L243.733 403.4C236.133 409 229.466 413.667 228.8 413.667C228.266 413.667 227.066 401.533 226.133 386.6C224.533 359.8 221.066 327.667 217.2 302.333C216.133 295 214.933 286.6 214.533 283.667L213.733 278.333L225.6 275.133C232 273.267 241.866 269.533 247.6 266.733C262.533 259.267 269.467 250.333 272.8 233.933L274.533 225.667H285.6C291.733 225.667 296.666 226.067 296.666 226.6Z"></path>
<path fill="#413627" d="M161.2 1.40005C159.466 2.46672 131.333 54.0667 131.333 56.0667C131.333 56.7334 128.666 57.8 125.333 58.2C97.3332 62.4667 61.8665 86.0667 43.5998 112.733C33.3332 127.533 23.3332 154.467 23.3332 167.133C23.3332 170.867 22.6665 172.333 20.7998 173C15.0665 174.733 14.2665 177.667 12.7998 198.333C11.4665 219.8 11.9998 223.133 17.9998 225C20.1332 225.667 20.6665 227 20.6665 232.333C20.6665 252.067 15.0665 288.333 6.6665 322.6C3.33317 335.933 0.666504 348.2 0.666504 349.933C0.666504 354.333 3.0665 356.333 42.6665 385.667C61.7332 399.8 83.5998 416.067 91.3332 421.8C105.733 432.6 109.066 434.067 111.066 429.933C111.733 428.733 113.333 412.733 114.666 394.6C116.666 367.533 117.466 361.267 119.2 360.467C120.4 359.8 126.933 357.4 133.867 355C150 349.533 166 348.333 181.866 351.533C192.4 353.667 209.6 359.4 211.6 361.4C212.133 361.933 213.466 376.733 214.666 394.333C215.866 411.933 217.333 427.667 218 429.267C218.666 431 220.4 432.333 221.733 432.333C224.533 432.333 316.666 365.4 327.066 355.933C330.933 352.333 330.8 350.2 325.333 330.733C317.466 302.467 310.933 265.667 309.2 239.267C308.4 227.8 308.533 225.667 310.266 225.667C311.333 225.667 313.6 224.2 315.2 222.467C318.133 219.4 318.133 218.6 317.333 202.067C316.133 177.267 316 176.6 310.533 174.067C306.533 172.067 306 171.267 306 167C306 159 301.066 142.333 295.333 130.6C278.533 96.2001 242 66.6001 207.066 59.0001L199.466 57.2667L185.2 31.1334C177.333 16.7334 170 3.93337 168.933 2.60003C166.8 0.200032 163.733 -0.333283 161.2 1.40005ZM176.266 38.6L187.066 58.3334L184.533 78.3334C176.533 141.667 172.666 175.667 173.333 177.8C173.733 179 178.133 183.8 182.933 188.333C193.066 197.933 191.866 197.8 216.666 191.267C240.266 185.133 270.266 181.267 288.4 181.933C296.666 182.333 303.733 183 304.266 183.4C304.666 183.933 305.333 191.133 305.733 199.4L306.4 214.6L277.866 215.4C248 216.2 240.133 217.267 220 223.8C204.933 228.733 182.4 239.8 180.133 243.267C178.266 246.467 177.866 243.8 185.333 293.4L187.6 308.6L184.4 311.933C182.8 313.8 177.866 318.067 173.6 321.267C164.4 328.333 164.266 328.333 151.333 316.6C141.733 307.933 141.866 309.8 147.2 273.667C149.733 256.467 150.667 246.6 149.867 244.6C149.067 242.333 144.4 239.4 133.733 234.333C103.2 219.8 88.1332 216.333 50.7998 215.4L23.0665 214.733L23.9998 199.8C24.5332 191.667 25.4665 184.333 26.2665 183.667C26.9332 182.867 35.5998 182.333 47.0665 182.333C69.4665 182.467 89.3332 185.133 112.4 191.267C137.333 197.8 135.866 197.933 146.4 188.333C151.333 183.8 155.6 178.733 156 177.267C156.4 175.667 153.733 149.4 150 119C146.4 88.6 143.333 62.0667 143.333 59.9334C143.333 56.4667 162.8 19.0001 164.533 19.0001C164.933 19.0001 170.266 27.8 176.266 38.6ZM132.666 69.9334C132.666 70.8667 135.066 91.8 138 116.333C140.933 140.867 143.733 164.067 144.133 167.8C144.933 174.6 144.933 174.6 139.066 179.4L133.066 184.333L117.866 180.333C97.4665 175 68.7998 170.867 49.8665 170.6L34.2665 170.333L34.9332 165.667C41.1998 122.2 77.3332 82.4667 121.2 71.0001C132.8 67.9334 132.666 67.9334 132.666 69.9334ZM214.666 73.4C232.133 79.5334 244.666 87.2667 259.333 101.133C277.466 118.333 290.8 142.467 294.533 165L295.466 170.333L280.4 170.467C258.666 170.733 227.333 175.533 205.6 181.8L196.533 184.467L190.533 179.667C187.333 177 184.666 174.467 184.666 173.933C184.533 173.4 187.467 149.533 190.933 120.733L197.2 68.4667L201.333 69.2667C203.466 69.6667 209.6 71.5334 214.666 73.4ZM55.9998 231.933C59.1998 253.533 73.5998 266.467 104 275.133C109.866 276.733 114.8 278.2 115.066 278.467C115.333 278.6 114.266 287.267 112.8 297.8C108.933 325.267 105.066 362.6 103.2 389.933C102.266 403 101.2 413.667 100.8 413.667C100.4 413.667 93.9998 409.267 86.6665 403.933L73.3332 394.2L72.3998 381.533C71.0665 364.733 67.9998 346.067 63.1998 324.867C58.6665 305 48.9332 275 48.7998 280.6C48.6665 282.6 51.0665 298.2 53.9998 315.267C59.4665 348.2 63.3332 375.4 63.3332 382.467V386.867L38.3998 368.2C24.5332 357.933 13.1998 348.867 12.9332 347.933C12.7998 347 14.9332 336.467 17.8665 324.6C25.5998 293.4 32.5332 247.933 32.6665 227.933C32.6665 225.933 34.1332 225.667 43.8665 225.667H55.0665L55.9998 231.933ZM296.666 226.6C296.666 227.267 297.333 234.867 298 243.667C300.533 272.2 306.4 304.867 314.266 333.4C318.266 348.067 318.266 348.6 315.866 350.333C314.4 351.267 303.2 359.667 290.666 368.867C274.933 380.467 267.866 385 267.6 383.667C266.8 380.333 270.933 348.733 276.666 313.933C284.266 267.933 283.6 266.6 272.8 304.2C265.6 328.867 260 358.467 258.533 379.8L257.6 393.133L243.733 403.4C236.133 409 229.466 413.667 228.8 413.667C228.266 413.667 227.066 401.533 226.133 386.6C224.533 359.8 221.066 327.667 217.2 302.333C216.133 295 214.933 286.6 214.533 283.667L213.733 278.333L225.6 275.133C232 273.267 241.866 269.533 247.6 266.733C262.533 259.267 269.467 250.333 272.8 233.933L274.533 225.667H285.6C291.733 225.667 296.666 226.067 296.666 226.6Z"></path>
<path fill="url(#paint0_linear_11_193)" d="M187.066 58.3334L176.266 38.6C170.266 27.8 164.933 19.0001 164.533 19.0001C162.8 19.0001 143.333 56.4667 143.333 59.9334C143.333 62.0667 146.4 88.6 150 119C153.733 149.4 156.4 175.667 156 177.267C155.6 178.733 151.333 183.8 146.4 188.333C135.866 197.933 137.333 197.8 112.4 191.267C89.3332 185.133 69.4665 182.467 47.0665 182.333C35.5998 182.333 26.9332 182.867 26.2665 183.667C25.4665 184.333 24.5332 191.667 23.9998 199.8L23.0665 214.733L50.7998 215.4C88.1332 216.333 103.2 219.8 133.733 234.333C144.4 239.4 149.067 242.333 149.867 244.6C150.667 246.6 149.733 256.467 147.2 273.667C141.866 309.8 141.733 307.933 151.333 316.6C164.266 328.333 164.4 328.333 173.6 321.267C177.866 318.067 182.8 313.8 184.4 311.933L187.6 308.6L185.333 293.4C177.866 243.8 178.266 246.467 180.133 243.267C182.4 239.8 204.933 228.733 220 223.8C240.133 217.267 248 216.2 277.866 215.4L306.4 214.6L305.733 199.4C305.333 191.133 304.666 183.933 304.266 183.4C303.733 183 296.666 182.333 288.4 181.933C270.266 181.267 240.266 185.133 216.666 191.267C191.866 197.8 193.066 197.933 182.933 188.333C178.133 183.8 173.733 179 173.333 177.8C172.666 175.667 176.533 141.667 184.533 78.3334L187.066 58.3334Z"></path>
<path fill="url(#paint1_linear_11_193)" d="M138 116.333C135.066 91.8 132.666 70.8667 132.666 69.9334C132.666 67.9334 132.8 67.9334 121.2 71.0001C77.3332 82.4667 41.1998 122.2 34.9332 165.667L34.2665 170.333L49.8665 170.6C68.7998 170.867 97.4665 175 117.866 180.333L133.066 184.333L139.066 179.4C144.933 174.6 144.933 174.6 144.133 167.8C143.733 164.067 140.933 140.867 138 116.333Z"></path>
<path fill="url(#paint2_linear_11_193)" d="M259.333 101.133C244.666 87.2667 232.133 79.5334 214.666 73.4C209.6 71.5334 203.466 69.6667 201.333 69.2667L197.2 68.4667L190.933 120.733C187.467 149.533 184.533 173.4 184.666 173.933C184.666 174.467 187.333 177 190.533 179.667L196.533 184.467L205.6 181.8C227.333 175.533 258.666 170.733 280.4 170.467L295.466 170.333L294.533 165C290.8 142.467 277.466 118.333 259.333 101.133Z"></path>
<path fill="url(#paint3_linear_11_193)" d="M104 275.133C73.5998 266.467 59.1998 253.533 55.9998 231.933L55.0665 225.667H43.8665C34.1332 225.667 32.6665 225.933 32.6665 227.933C32.5332 247.933 25.5998 293.4 17.8665 324.6C14.9332 336.467 12.7998 347 12.9332 347.933C13.1998 348.867 24.5332 357.933 38.3998 368.2L63.3332 386.867V382.467C63.3332 375.4 59.4665 348.2 53.9998 315.267C51.0665 298.2 48.6665 282.6 48.7998 280.6C48.9332 275 58.6665 305 63.1998 324.867C67.9998 346.067 71.0665 364.733 72.3998 381.533L73.3332 394.2L86.6665 403.933C93.9998 409.267 100.4 413.667 100.8 413.667C101.2 413.667 102.266 403 103.2 389.933C105.066 362.6 108.933 325.267 112.8 297.8C114.266 287.267 115.333 278.6 115.066 278.467C114.8 278.2 109.866 276.733 104 275.133Z"></path>
<path fill="url(#paint4_linear_11_193)" d="M298 243.667C297.333 234.867 296.666 227.267 296.666 226.6C296.666 226.067 291.733 225.667 285.6 225.667H274.533L272.8 233.933C269.467 250.333 262.533 259.267 247.6 266.733C241.866 269.533 232 273.267 225.6 275.133L213.733 278.333L214.533 283.667C214.933 286.6 216.133 295 217.2 302.333C221.066 327.667 224.533 359.8 226.133 386.6C227.066 401.533 228.266 413.667 228.8 413.667C229.466 413.667 236.133 409 243.733 403.4L257.6 393.133L258.533 379.8C260 358.467 265.6 328.867 272.8 304.2C283.6 266.6 284.266 267.933 276.666 313.933C270.933 348.733 266.8 380.333 267.6 383.667C267.866 385 274.933 380.467 290.666 368.867C303.2 359.667 314.4 351.267 315.866 350.333C318.266 348.6 318.266 348.067 314.266 333.4C306.4 304.867 300.533 272.2 298 243.667Z"></path>
<defs>
<linearGradient gradientUnits="userSpaceOnUse" y2="0.382355" x2="165.201" y1="432.333" x1="165.201" id="paint0_linear_11_193">
<stop stop-color="#B99A70"></stop>
<stop stop-color="#6F5C43" offset="1"></stop>
</linearGradient>
<linearGradient gradientUnits="userSpaceOnUse" y2="0.382355" x2="165.201" y1="432.333" x1="165.201" id="paint1_linear_11_193">
<stop stop-color="#B99A70"></stop>
<stop stop-color="#6F5C43" offset="1"></stop>
</linearGradient>
<linearGradient gradientUnits="userSpaceOnUse" y2="0.382355" x2="165.201" y1="432.333" x1="165.201" id="paint2_linear_11_193">
<stop stop-color="#B99A70"></stop>
<stop stop-color="#6F5C43" offset="1"></stop>
</linearGradient>
<linearGradient gradientUnits="userSpaceOnUse" y2="0.382355" x2="165.201" y1="432.333" x1="165.201" id="paint3_linear_11_193">
<stop stop-color="#B99A70"></stop>
<stop stop-color="#6F5C43" offset="1"></stop>
</linearGradient>
<linearGradient gradientUnits="userSpaceOnUse" y2="0.382355" x2="165.201" y1="432.333" x1="165.201" id="paint4_linear_11_193">
<stop stop-color="#B99A70"></stop>
<stop stop-color="#6F5C43" offset="1"></stop>
</linearGradient>
</defs>
</svg>
